<svg xmlns="http://www.w3.org/2000/svg" width="54" height="40" viewBox="0 0 54 40"><path d="M33.819 29.551V25.44c-3.644.24-10.134 1.494-15.05 6.783l3.802-9.51a.527.527 0 0 1 .475-.32c.208 0 .39.129.482.32l1.492 3.83a20.58 20.58 0 0 1 3.672-1.384L26.3 19.28c-.617-1.432-1.966-2.015-3.223-2.015-1.678 0-2.666 1.133-3.206 2.397l-7.973 19.132h4.243l1.071-2.676-.191.482c3.258-3.438 6.522-5.064 9.681-5.928l3.247 8.122h4.375l-3.655-8.89c1.07-.14 2.122-.244 3.15-.352zm16.303-11.887v16.288h-.062a5.418 5.418 0 0 0-.402-.77L42.3 20.135c-.96-1.635-2.412-2.685-4.362-2.685-.775 0-2.083.182-2.793.464v20.879h3.869V22.509h.057c.128.277.252.522.405.77l7.437 13.041c.953 1.636 2.41 2.688 4.358 2.688.776 0 2.005-.187 2.72-.46V17.664h-3.87zM6.51 26.687c-.822 0-1.647-.04-2.518-.171v-8.902c.87-.173 1.78-.259 2.65-.259 3.169 0 5.512 1.18 5.512 4.236 0 3.34-2.431 5.096-5.644 5.096zm9.473-4.894c0-5.724-4.601-7.802-9.615-7.802-2.376 0-4.066.188-6.369.71v24.092h3.993v-8.966c.792.114 1.507.187 2.3.187 5.201 0 9.691-2.79 9.691-8.221zm9.439-18.167c.65 0 1.3.222 1.688.374l.374-1.01a5.648 5.648 0 0 0-2.132-.444c-2.103 0-3.474 1.482-3.474 3.613 0 2.242 1.648 3.598 3.627 3.598.692 0 1.37-.152 1.979-.429l-.36-.969c-.401.153-.941.333-1.55.333-1.246 0-2.312-.983-2.312-2.56 0-1.274.678-2.506 2.16-2.506zm6.56 5.066c-1.329 0-1.98-1.15-1.98-2.533 0-1.384.651-2.533 1.98-2.533 1.328 0 1.965 1.149 1.965 2.533s-.637 2.533-1.966 2.533zm-.014-6.146c-2.007 0-3.35 1.51-3.35 3.613 0 2.103 1.343 3.612 3.35 3.612 2.006 0 3.363-1.509 3.363-3.612 0-2.104-1.357-3.613-3.363-3.613zm-14.282 0c-1.01 0-2.049.347-2.99.706 0 0 .098.623.098.928v5.439h1.245V4.332c0-.125-.028-.346-.028-.346.526-.221 1.094-.36 1.648-.36.982 0 1.563.526 1.563 1.536V9.62h1.246V4.927c0-1.757-1.177-2.38-2.782-2.38zm-7.584 6.146c-.927 0-1.509-.333-1.509-1.052 0-.775.734-.997 1.537-1.177.513-.11 1.066-.207 1.384-.457V8.18c0 .097.028.277.028.277a4.48 4.48 0 0 1-1.44.236zm2.658-3.93c0-1.454-.886-2.216-2.533-2.216-.733 0-1.66.236-2.339.554l.43.969c.29-.124 1.12-.443 1.826-.443.595 0 1.356.139 1.356.941 0 .678-.913.79-1.91.997-1.135.235-2.38.65-2.38 2.172 0 1.357 1.204 2.035 2.892 2.035.956 0 1.938-.25 2.755-.512 0 0-.097-.595-.097-.886V4.761zM2.31 8.594a5.8 5.8 0 0 1-.981-.083V5.356h1.065c1.149 0 2.243.25 2.243 1.633 0 1.287-1.274 1.606-2.326 1.606zm-.98-7.335c.332-.069.678-.11 1.023-.11.997 0 1.925.346 1.925 1.495 0 1.176-.9 1.536-1.925 1.536H1.33V1.26zm2.865 3.46v-.027c.9-.318 1.48-1.121 1.48-2.076C5.675.581 4.042 0 2.285 0 1.522 0 .4.166 0 .249v9.287c.65.138 1.522.235 2.284.235 1.813 0 3.75-.553 3.75-2.726 0-1.204-.678-2.049-1.84-2.325z" fill="#FFF" fill-rule="evenodd"/></svg>